<?xml version="1.0" encoding="utf-8"?>
<!-- Uploaded to: SVG Repo, www.svgrepo.com, Generator: SVG Repo Mixer Tools -->
<svg width="800px" height="800px" viewBox="0 0 32 32" fill="none" xmlns="http://www.w3.org/2000/svg">
<g clip-path="url(#clip0_901_3115)">
<path d="M31 1L19 14V31L30 31C30.55 31 31 30.55 31 30V1Z" fill="#FFC44D"/>
<path d="M13 8V31H2C1.45 31 1 30.55 1 30V20L13 8Z" fill="#FFC44D"/>
<path d="M19 14V31H13V8L19 14Z" fill="#FFE6EA"/>
<path d="M2 7H25.46L24.75 7.77L19 14L13 8L7 14L1 20V8C1 7.45 1.45 7 2 7Z" fill="#668077"/>
<path d="M9 7H2C1.447 7 1 7.447 1 8V30C1 30.553 1.447 31 2 31H30C30.553 31 31 30.553 31 30V1L19 14M19 14L13 8M19 14V31M13 8L4 17M13 8V31M25 31V8M7 31V14" stroke="#000000" stroke-width="2" stroke-linecap="round" stroke-linejoin="round"/>
</g>
<defs>
<clipPath id="clip0_901_3115">
<rect width="32" height="32" fill="white"/>
</clipPath>
</defs>
</svg>