<?xml version="1.0" encoding="iso-8859-1"?>
<!-- Uploaded to: SVG Repo, www.svgrepo.com, Generator: SVG Repo Mixer Tools -->
<svg version="1.1" id="Layer_1" xmlns="http://www.w3.org/2000/svg" xmlns:xlink="http://www.w3.org/1999/xlink" 
	 viewBox="0 0 512.001 512.001" xml:space="preserve">
<rect x="330.25" y="129.857" style="fill:#FFE6B8;" width="121.095" height="176.824"/>
<g>
	<path style="fill:#D35B38;" d="M454.327,93.624H327.269c-10.006,0-18.118,8.111-18.118,18.118l0,0
		c0,10.006,8.111,18.118,18.118,18.118h127.058c10.006,0,18.118-8.111,18.118-18.118l0,0
		C472.444,101.736,464.333,93.624,454.327,93.624z"/>
	<path style="fill:#D35B38;" d="M454.327,306.685H327.269c-10.006,0-18.118,7.883-18.118,17.889l0,0
		c0,10.006,8.111,18.118,18.118,18.118h127.058c10.006,0,18.118-8.111,18.118-18.118l0,0
		C472.444,314.568,464.333,306.685,454.327,306.685z"/>
</g>
<path style="fill:#FFAD61;" d="M465.972,382.37H315.624c-19.787,0-35.829,16.041-35.829,35.829l0,0c0,0.099,0.08,0.178,0.178,0.178
	h221.65c0.099,0,0.178-0.08,0.178-0.178l0,0C501.801,398.411,485.76,382.37,465.972,382.37z"/>
<rect x="210.991" y="201.873" style="fill:#FFE6B8;" width="119.259" height="32.801"/>
<path style="fill:#D35B38;" d="M210.991,243.845H35.772c-14.124,0-25.572-11.449-25.572-25.571l0,0
	c0-14.123,11.449-25.572,25.572-25.572h175.219V243.845z"/>
<g>
	<path style="fill:#4D3D36;" d="M465.972,372.17H315.624c-25.38,0-46.028,20.648-46.028,46.028c0,5.722,4.655,10.378,10.378,10.378
		h221.65c5.722,0,10.378-4.655,10.378-10.378C512,392.819,491.352,372.17,465.972,372.17z M292.034,408.178
		c3.909-9.167,13.011-15.609,23.59-15.609h150.349c10.579,0,19.68,6.441,23.589,15.609H292.034z"/>
	<path style="fill:#4D3D36;" d="M320.051,244.871v52.543c-12.129,3.174-21.1,14.146-21.1,27.16
		c0,15.614,12.703,28.317,28.317,28.317h127.058c15.615,0,28.318-12.703,28.318-28.317c0-13.014-8.971-23.986-21.1-27.16v-158.29
		c12.129-3.199,21.1-14.262,21.1-27.382c0-15.615-12.703-28.318-28.318-28.318H327.269c-15.614,0-28.317,12.703-28.317,28.318
		c0,13.12,8.971,24.182,21.1,27.382v52.551h-98.913c-0.515-5.151-4.861-9.173-10.147-9.173H35.772
		C16.046,182.503,0,198.549,0,218.274s16.046,35.771,35.772,35.771h175.219c5.286,0,9.633-4.023,10.147-9.173H320.051z
		 M340.449,140.06h100.696v156.426H340.449V140.06z M454.327,316.885c4.441,0,7.92,3.378,7.92,7.69c0,4.366-3.552,7.919-7.92,7.919
		H327.269c-4.366,0-7.919-3.551-7.919-7.919c0-4.313,3.479-7.69,7.919-7.69H454.327z M327.269,119.662
		c-4.366,0-7.919-3.552-7.919-7.92s3.552-7.92,7.919-7.92h127.058c4.366,0,7.92,3.552,7.92,7.92s-3.552,7.92-7.92,7.92H327.269z
		 M320.051,224.473H221.19v-12.398h98.861V224.473z M20.398,218.274c0-8.477,6.897-15.372,15.373-15.372h165.02v30.745H35.772
		C27.295,233.646,20.398,226.749,20.398,218.274z"/>
	<path style="fill:#4D3D36;" d="M421.227,286.598c5.633,0,10.199-4.567,10.199-10.199v-60.175c0-5.632-4.566-10.199-10.199-10.199
		s-10.199,4.567-10.199,10.199v60.175C411.028,282.031,415.594,286.598,421.227,286.598z"/>
	<path style="fill:#4D3D36;" d="M421.227,197.865c5.633,0,10.199-4.567,10.199-10.199v-3.06c0-5.632-4.566-10.199-10.199-10.199
		s-10.199,4.567-10.199,10.199v3.06C411.028,193.298,415.594,197.865,421.227,197.865z"/>
</g>
</svg>