<svg width="36" height="36" viewBox="0 0 36 36" fill="none" xmlns="http://www.w3.org/2000/svg">
<path d="M22.4014 0.66098C21.5225 -0.217926 20.0952 -0.217926 19.2162 0.66098L10.7787 9.09848C9.89984 9.97739 9.89984 11.4047 10.7787 12.2836L11.9037 13.4086C12.7827 14.2875 14.21 14.2875 15.0889 13.4086L15.3702 13.1274L22.8795 20.6297L22.5983 20.911C21.7194 21.7899 21.7194 23.2172 22.5983 24.0961L23.7233 25.2211C24.6022 26.1 26.0295 26.1 26.9084 25.2211L35.3459 16.7836C36.2248 15.9047 36.2248 14.4774 35.3459 13.5985L34.2209 12.4735C33.342 11.5946 31.9147 11.5946 31.0358 12.4735L30.7545 12.7547L23.2452 5.24535L23.5264 4.9641C24.4053 4.0852 24.4053 2.65785 23.5264 1.77895L22.4014 0.653949V0.66098ZM11.7139 20.911C10.835 20.0321 9.40765 20.0321 8.52875 20.911L0.653748 28.786C-0.225159 29.6649 -0.225159 31.0922 0.653748 31.9711L4.02875 35.3461C4.90765 36.225 6.335 36.225 7.2139 35.3461L15.0889 27.4711C15.9678 26.5922 15.9678 25.1649 15.0889 24.286L14.9905 24.1875L19.1248 20.0602L15.9397 16.875L11.8123 21.0024L11.7139 20.9039V20.911Z" fill="black"/>
</svg>
