<svg height="200px" width="200px" version="1.1" id="Layer_1" xmlns="http://www.w3.org/2000/svg" xmlns:xlink="http://www.w3.org/1999/xlink" viewBox="0 0 392.653 392.653" xml:space="preserve" fill="#000000"><g id="SVGRepo_bgCarrier" stroke-width="0"></g><g id="SVGRepo_tracerCarrier" stroke-linecap="round" stroke-linejoin="round"></g><g id="SVGRepo_iconCarrier"> <path style="fill:#FFC10D;" d="M94.245,25.149L87.78,41.634l13.446,5.301c2.715,1.099,4.848,3.168,6.012,5.818 c1.164,2.651,1.164,5.624,0.129,8.339L59.4,182.757c-2.263,5.56-8.469,8.339-14.158,6.077l-13.511-5.236l-6.465,16.485 l101.689,40.081l6.465-16.485l-13.446-5.301c-5.56-2.263-8.339-8.598-6.077-14.158l47.968-121.6 c1.099-2.715,3.168-4.848,5.818-6.012c2.651-1.164,5.624-1.228,8.339-0.129l13.446,5.43l6.465-16.485L94.245,25.149z"></path> <path style="fill:#56ACE0;" d="M365.178,223.614l-203.766-80.42l-6.465,16.549l203.766,80.42c4.59,1.745,10.02-0.453,11.507-5.042 C372.483,228.139,367.311,224.454,365.178,223.614z"></path> <polygon style="fill:#FFFFFF;" points="39.554,308.624 21.97,342.046 21.97,370.749 267.109,370.749 267.109,342.046 249.655,308.624 "></polygon> <g> <path style="fill:#194F82;" d="M373.194,203.38l-203.83-80.485l8.727-22.174l13.511,5.301c5.624,2.263,11.895-0.517,14.158-6.077 l14.545-36.784c2.327-5.818-0.646-11.83-6.077-14.158L92.176,0.907c-5.624-2.263-11.895,0.517-14.158,6.077L63.473,43.768 c-1.099,2.715-2.069,10.408,6.206,14.158l13.511,5.301L43.109,164.592l-13.446-5.301c-5.624-2.263-11.895,0.517-14.158,6.077 L0.96,202.151c-2.651,5.689,0.453,11.636,6.077,14.158l122.053,48.097c6.012,2.457,12.412-1.099,14.158-6.077l14.545-36.719 c2.263-5.56-0.517-11.895-6.077-14.158l-13.446-5.301l8.727-22.174l203.766,80.42c14.998,6.4,32.582-0.517,39.822-17.325 C396.661,227.428,388.903,209.521,373.194,203.38z M113.897,204.22c-2.263,5.56,0.517,11.895,6.077,14.158l13.446,5.301 l-6.465,16.485L25.267,200.083l6.465-16.485l13.446,5.301c5.624,2.263,11.895-0.517,14.158-6.077l48.032-121.729 c1.099-2.715,1.034-5.689-0.129-8.339c-1.164-2.651-3.297-4.719-6.012-5.818l-13.511-5.301l6.465-16.485L195.869,65.23 l-6.465,16.485l-13.511-5.301c-2.715-1.099-5.689-1.034-8.339,0.129c-2.65,1.164-4.719,3.297-5.818,6.012L113.897,204.22z M370.156,235.121c-1.745,4.461-6.982,6.788-11.507,5.042l-203.83-80.485l6.465-16.549l203.766,80.42 C369.703,225.359,371.966,230.596,370.156,235.121z"></path> <path style="fill:#194F82;" d="M265.881,292.721c-1.875-3.62-5.624-5.883-9.632-5.883H32.895c-4.008,0-7.822,2.263-9.632,5.883 L1.412,334.353c-0.84,1.552-1.228,3.297-1.228,5.042v42.214c0,6.012,4.848,10.925,10.925,10.925h266.925 c6.012,0,10.925-4.848,10.925-10.925v-42.214c0-1.745-0.453-3.491-1.228-5.042L265.881,292.721z M267.109,370.749H21.97v-28.638 l17.455-33.487H249.59l17.455,33.487v28.638H267.109z"></path> </g> </g></svg>