<?xml version="1.0" encoding="iso-8859-1"?>
<!-- Uploaded to: SVG Repo, www.svgrepo.com, Generator: SVG Repo Mixer Tools -->
<svg fill="#000000" height="800px" width="800px" version="1.1" id="Layer_1" xmlns="http://www.w3.org/2000/svg" xmlns:xlink="http://www.w3.org/1999/xlink" 
	 viewBox="0 0 511.996 511.996" xml:space="preserve">
<g>
	<g>
		<g>
			<path d="M318.866,404.713c5.653,0,11.093-2.261,15.083-6.251l120.683-120.704c4.011-3.989,6.251-9.408,6.251-15.083
				c0-5.653-2.24-11.072-6.251-15.083l-60.331-60.331c-8.341-8.32-21.845-8.32-30.165,0l-15.092,15.092l-90.515-90.515
				l15.082-15.082c4.011-4.011,6.251-9.429,6.251-15.083c0-5.653-2.24-11.093-6.251-15.083L213.279,6.24
				c-8.341-8.32-21.845-8.32-30.165,0L62.431,126.923c-8.341,8.341-8.341,21.824,0,30.165l60.331,60.352
				c4.011,3.989,9.429,6.251,15.083,6.251c5.653,0,11.093-2.261,15.083-6.251l15.094-15.094l30.171,30.171L1.347,429.361
				l30.165,30.165l196.845-196.845l30.179,30.179l-15.084,15.084c-8.341,8.341-8.341,21.824,0,30.165l60.331,60.352
				C307.794,402.451,313.213,404.713,318.866,404.713z M107.679,142.005l90.517-90.517l30.165,30.187L213.417,96.62
				c-0.046,0.045-0.098,0.083-0.144,0.129l-42.352,42.367l-33.076,33.076L107.679,142.005z M198.19,172.183l9.088-9.095
				l21.084-21.084l90.51,90.51l-15.083,15.093l-15.088,15.088L198.19,172.183z M303.683,308.045
				c0.034-0.034,0.072-0.062,0.107-0.096l30.079-30.09l45.349-45.349l30.165,30.165l-90.517,90.539l-30.165-30.187L303.683,308.045z
				"/>
			<path d="M489.315,469.329h-192c-11.776,0-21.333,9.557-21.333,21.333s9.557,21.333,21.333,21.333h192
				c11.776,0,21.333-9.557,21.333-21.333S501.091,469.329,489.315,469.329z"/>
			<path d="M361.315,405.329c-11.776,0-21.333,9.557-21.333,21.333s9.557,21.333,21.333,21.333h64
				c11.776,0,21.333-9.557,21.333-21.333s-9.557-21.333-21.333-21.333H361.315z"/>
		</g>
	</g>
</g>
</svg>